<svg class="svg-icon" style="width: 1em; height: 1em;vertical-align: middle;fill: currentColor;overflow: hidden;" viewBox="0 0 1024 1024" version="1.1" xmlns="http://www.w3.org/2000/svg"><path d="M741.799724 841.551448a70.726621 70.726621 0 0 1-70.373517-70.973793c0-39.123862 31.567448-70.938483 70.373517-70.938483 38.841379 0 70.408828 31.814621 70.408828 70.938483a70.761931 70.761931 0 0 1-70.408828 70.973793z m0-108.402758c-20.48 0-37.111172 16.772414-37.111172 37.428965 0 20.656552 16.631172 37.464276 37.111172 37.464276 20.51531 0 37.146483-16.772414 37.146483-37.464276 0-20.656552-16.666483-37.428966-37.146483-37.428965z m-282.518069 108.402758a70.761931 70.761931 0 0 1-70.408827-70.973793c0-39.123862 31.602759-70.938483 70.408827-70.938483S529.655172 731.453793 529.655172 770.577655c0 39.159172-31.567448 70.973793-70.373517 70.973793z m0-108.402758c-20.48 0-37.146483 16.772414-37.146483 37.428965 0 20.656552 16.666483 37.464276 37.146483 37.464276 20.48 0 37.146483-16.772414 37.146483-37.464276 0-20.656552-16.666483-37.428966-37.146483-37.428965z m-1.377103-60.274759c-8.015448 0-27.224276-2.648276-48.869518-24.399448-23.092966-23.198897-28.601379-46.574345-29.801931-53.318621L290.533517 244.100414a23.446069 23.446069 0 0 1-0.564965-3.072c0-0.070621-0.882759-8.827586-3.425104-19.279448-0.247172 0.353103-2.966069-0.918069-5.331862-1.624276H175.527724c-9.18069 0-16.631172-8.439172-16.631172-18.785104 0-10.416552 7.450483-18.820414 16.631172-18.820414h107.55531c0.953379 0 1.906759 0.070621 2.895449 0.282483 2.754207 0.564966 27.153655 6.038069 32.697379 29.060414 2.542345 10.522483 3.778207 19.632552 4.201931 23.304828l72.66869 287.426206 376.267034-0.388413 59.109517-213.804138a15.077517 15.077517 0 0 1 0.635587-1.906759c0-0.070621 1.447724-5.12-1.271173-10.593103-0.812138-1.694897-5.967448-2.789517-9.321931-2.542345l-426.690207 0.070621c-9.18069 0-16.631172-8.439172-16.631172-18.820414s7.450483-18.855724 16.631172-18.855724H818.846897c5.826207-0.388414 29.307586-0.670897 40.395034 21.680551a57.908966 57.908966 0 0 1 3.319172 42.443035l-60.380689 218.571034a23.304828 23.304828 0 0 1-0.882759 2.648276c-3.990069 9.498483-13.665103 18.785103-26.835862 18.749793l-369.381517 0.529655 6.391172 25.317518c0.211862 0.847448 0.353103 1.730207 0.459035 2.577655 0.070621 0.247172 2.648276 15.39531 19.208827 32.026483 15.289379 15.430621 26.412138 14.865655 26.800552 14.900965l294.347035-0.105931c9.18069 0 16.631172 8.474483 16.631172 18.855724 0 10.381241-7.450483 18.820414-16.631172 18.820414H460.093793a18.432 18.432 0 0 1-2.189241 0.105931z" fill="#666666" /></svg>